# xmcd
#
# Track frame offsets:
#	150
#	15450
#	30125
#	44242
#	57355
#	68930
#	82502
#	96715
#	106482
#	118714
#	128076
#	138646
#	152318
#	165361
#	176388
#	194039
#	210985
#	225678
#	236076
#	246372
#
# Disc length: 3438 seconds
#
# Revision: 1
# Processed by: cddbd v1.5.2PL0 Copyright (c) Steve Scherf et al.
# Submitted via: audiograbber 1.83.01
#
DISCID=0b0d6c14
DTITLE=Glen Campbell - Classic Campbell Disc 2
DYEAR=2006
DGENRE=Country
TTITLE0=Learnin' The Blues
TTITLE1=Rhinestone Cowboy
TTITLE2=Wichita Lineman
TTITLE3=Break My Mind
TTITLE4=Dream Baby (How Long Must I Dream)
TTITLE5=Southern Nights
TTITLE6=Until It's Time For You To Go
TTITLE7=Universal Soldier
TTITLE8=Galveston
TTITLE9=It's Over
TTITLE10=Help Me Make It Through The Night
TTITLE11=Mary In The Morning
TTITLE12=Crying
TTITLE13=Running Scared
TTITLE14=Last Thing On My Mind
TTITLE15=Yesterday, When I Was Young
TTITLE16=My Girl
TTITLE17=Catch The Wind
TTITLE18=Without Her
TTITLE19=You're My World
EXTD=
EXTT0=
EXTT1=
EXTT2=
EXTT3=
EXTT4=
EXTT5=
EXTT6=
EXTT7=
EXTT8=
EXTT9=
EXTT10=
EXTT11=
EXTT12=
EXTT13=
EXTT14=
EXTT15=
EXTT16=
EXTT17=
EXTT18=
EXTT19=
PLAYORDER=
